<svg xmlns="http://www.w3.org/2000/svg" viewBox="0 0 102.17 27.24"><defs><style>.a{fill:#212121;}</style></defs><title>logo</title><path class="a" d="M3.52,13.59l15.14,7.06L18,22,0,13.59l18-8.4.63,1.34Z"/><path class="a" d="M42.37,23.61c.74,1.88,1.79,2.33,2.57,2.37v.74c-1-.07-2.57-.11-4-.11-1.92,0-3.69,0-4.73.11V26c1.79-.07,2.62-.34,2.62-1.37a5.09,5.09,0,0,0-.43-1.73L36.13,16.8H27.21l-1.52,3.92a8.73,8.73,0,0,0-.74,3c0,1.61,1.1,2.17,3.22,2.22v.74c-1.41-.07-3-.11-4.26-.11a27.22,27.22,0,0,0-2.76.11V26c1-.22,2.06-1,2.91-3.22L32.75.34h.6ZM31.72,5l-4.25,11h8.38Z"/><path class="a" d="M57.79,12.88c5.85.78,7.55,3.67,7.55,6.67,0,4.21-3.34,7.17-8.89,7.17-1.1,0-3.32-.11-6.36-.11-1.73,0-3.56,0-4.59.11V26c2.51-.11,3-.49,3-3.18V4.44c0-2.69-.49-3.07-3-3.18V.52c1,.07,2.89.11,4.52.11,2.33,0,4.7-.07,5.58-.07,5.19,0,7.81,2.4,7.81,5.82,0,2.62-1.48,5.17-5.62,6.43ZM51.94,4.44v8.36h2.49c4.35,0,5.44-2.82,5.44-6,0-3.63-1.48-5.51-5.19-5.51C52.43,1.26,51.94,1.9,51.94,4.44Zm9.7,14.94c0-3.76-1.9-5.94-6.6-5.94H51.94V22.8c0,2.58.49,3.07,2.78,3.07C59.57,25.87,61.64,23.54,61.64,19.39Z"/><path class="a" d="M68.27,27.24,78.34,0h1.21L69.48,27.24Z"/><path class="a" d="M84.14,22l-.63-1.34,15.14-7.06L83.5,6.52l.63-1.34,18,8.4Z"/></svg>